<?xml version="1.0" encoding="UTF-8"?>
<svg id="Layer_1" data-name="Layer 1" xmlns="http://www.w3.org/2000/svg" viewBox="0 0 512 512">
  <rect x="-.49" y="0" width="512.61" height="512.61" rx="61.36" ry="61.36" style="fill: #f1f2f2;"/>
  <g>
    <path d="M352.77,460.13c.63,1.25,1.76,1.43,3,1.51,13.76,.81,27.08-1.21,39.92-6.26,.16-.06,.35-.13,.47-.16,14.11-3.92,11.48-2.65,18.71-5.56,6.3-1.92,10.73-3.8,16.17-7.22,3.68-2.31,3.73-2.54,5.98-4.05,11.83-7.92,21.7-17.5,28.36-30.37,10.76-20.79,7.54-41.32-.37-61.82-4.31-11.17-11.3-21.04-16.81-31.62-2.75-5.28-3.02-5.92-10.42-15.56-.26-.34-2.14-2.9-4.88-5.75-4.44-6.74-5.09-8.15-6.58-16.15-2.08-11.19-6.24-21.98-9.03-33.06-1.48-5.86-2.94-11.81-4.68-17.53-2.36-7.75-5.08-15.5-8.16-23.04-4.77-11.69-9.48-23.4-14.46-35.01-8.67-20.22-18.86-39.57-32.22-56.95-9.06-11.78-18.26-23.64-29.42-33.66-3.74-3.36-7.92-6.23-12.01-9.17-1.34-.97-2.47-1.8-2.2-3.63,1.54,.69,3.19,1.22,4.62,2.1,13.45,8.29,26.09,17.33,37.49,28.65,21.2,21.06,37.35,45.14,47.98,72.79,9.82,25.55,17.89,51.73,25.49,78.04,3.82,13.22,7.56,26.57,15.1,38.3,7.61,11.85,15.87,23.24,23,35.46,10.57,18.12,16.94,37.11,15.94,58.12-.65,13.63-2.84,26.85-10.29,39.02-10.14,16.56-24.54,28.22-40.86,37.69-21.75,12.63-44.99,20.09-70.66,17.66-10.33-.98-19.78-4.05-29.71-10.73,7.86-.33,14.39,.22,20.53-2.04Z" style="fill: #cad2ce;"/>
    <path d="M87.86,196.1c0-.66,1.14-10.64,1.14-11.31,.22-4.39,2.62-10.93,2.84-15.32,1.94-10.02,4.27-19.15,7.85-28.74,.71-1.91-.68-3.07-2.52-3.98-2.94-1.46-5.17-4.07-6.34-7.14-1.82-4.8-3.09-9.73-2.81-15.04,.98-11.16,7.84-16.92,18.05-19.59,4.71,.11,9.47-.59,13.99,1.68,5.55,2.78,7.56,1.85,11.57-3.05,6.61-8.07,15.13-14.12,23.64-19.93,6.82-4.65,14.39-8.19,21.63-12.22,.66-.15,1.37-.18,1.98-.46,23.94-10.97,49.04-16.17,75.38-14.95,2.62,.12,3.52-1.04,4.49-3.06,3.31-6.84,8.29-12.01,15.59-14.66,0,0,.37,.08,.37,.08l.33-.19c4.52-1.21,8.86,.13,13.23,.95l3.03,1.33c7.33,5.82,12.64,12.69,11.22,22.79-.47,3.32,1.82,3.9,3.97,4.91,17.05,7.99,32.92,18.02,46.47,30.99,8.15,7.81,15.64,16.44,23.32,24.81,11.98,15.64,21.64,32.71,29.22,50.77,6.46,15.38,11.28,31.45,16.82,47.22,.25,.58,.49,1.16,.74,1.75,5.06,16.82,10.12,33.65,15.18,50.47,.25,.63,.5,1.27,.75,1.9,.68,3.33,1.94,6.43,3.59,9.38,4.25,8.72,9.86,16.61,15.45,24.44,7.81,10.93,13.33,23.06,19.64,34.79,2.09,7.66,4.84,15.12,6.76,22.85,2.25,9.07,1.6,18.17,1.61,27.3-.55,.96-.82,1.97-.88,3.02-.3,2.48-.59,4.93-.89,7.41-7.61,30.8-28.64,49.9-54.67,64.27-17.18,9.48-35.7,14.86-55.46,15.82-20.5,1-38.39-5.16-52.99-19.51-14.76-14.5-17.86-39.33,4.55-56.83,9.2-7.18,19.9-11.77,30.23-16.92,22.6-11.28,42.52-25.69,57.17-46.63,.38-.54,.96-.93,1.73-1.16-4.45,9.45-11.37,16.9-19.02,23.89-16.98,15.52-37.68,24.89-57.81,35.16-9.71,4.95-17.44,11.69-23.09,20.99-3.06,5.04-3.81,10.39-3.44,16.13,.21,3.23,1.71,4.56,4.83,4.37,5.76-.36,11.52-.7,17.35-.66-5.29,2.58-11.16,2.36-16.78,2.67-4.01,.22-4.07,1.45-2.94,4.53,5.74,15.64,17.07,21.45,34.71,17.68,2.47-.53,4.92-1.12,7.68-1.75-.5,2.4-2.47,2-3.57,2.8-6.14,2.26-12.67,1.72-20.53,2.04,9.93,6.68,19.38,9.75,29.71,10.73,25.66,2.43,48.9-5.02,70.66-17.66,16.32-9.47,30.72-21.13,40.86-37.69,7.45-12.17,9.64-25.38,10.29-39.02,1-21.01-5.37-40-15.94-58.12-7.13-12.22-15.39-23.61-23-35.46-7.53-11.73-11.28-25.09-15.1-38.3-7.6-26.31-15.67-52.49-25.49-78.04-10.63-27.66-26.78-51.73-47.98-72.79-11.39-11.32-24.03-20.36-37.49-28.65-1.43-.88-3.07-1.41-4.62-2.1-26.58-15.13-55.21-19.54-85.25-15.88-25.37,3.09-49.19,11.13-70.53,25.19-27.97,18.43-49.59,42.13-59.01,75.32-7.26,25.6-8.89,51.79-9.2,78.19-.28,23.91,3.12,47.46,6.54,71.01,.14,.93,.59,1.95-.66,3.2-1.37-4.29-2.93-2.99-5.76-1.72-4.1,1.64-12.82,6.61-12.82,6.61,0,0,8.11-6.6,12.7-8.96,2.64-1.36,3.27-2.86,2.77-5.61-2.71-14.75-2.63-29.81-4.75-44.62-.05-1.37-.81-18.65-.86-20.03M294.14,53.36c1.97,.42,4.15,3.42,5.87-.07,2.6-5.26-3.62-17.6-9.6-19.41-9.2-7.94-27.2-1.55-29.7,10.46-.52,2.51,.88,2.37,2.5,2.53,10.53,1.07,20.82,3.36,30.93,6.49ZM94.63,104.27c-6.81,8.63-5.99,22.27,1.77,29.61,3.73,3.53,5.4,3.38,7.23-1.25,3.57-9.06,8.98-17.03,14.28-25.08,1.3-1.34,2.58-2.71,3.91-4.02,1.7-1.68,1.1-2.78-.67-3.96-7.5-5.01-21.11-2.63-26.52,4.71Z" style="fill: #231f20;"/>
    <path d="M206.44,435.98c-.37-6.52-6.3-9.32-9.52-13.91-8.42-11.99-21.39-18.35-33.32-26.09-10.35-6.72-20.25-14.24-29.4-22.57-7.55-6.87-15.88-13.03-21.02-22.29-1.23-2.22-2.18-4.12-1.74-6.6,1.01-.17,1.72,1.94,2.92,.39,0,0-.04-.04-.04-.04-1.19,2.35,1.21,2.68,2.21,3.55,5.42,4.73,11.7,8.22,17.85,11.85,19.4,11.44,38.1,23.88,55.36,38.35,9.64,8.08,16.4,18.22,18.32,30.97,.32,2.12,2.07,5.08-1.6,6.39Z" style="fill: #cad2ce;"/>
    <path d="M206.44,435.98c3.68-1.32,1.92-4.27,1.6-6.39-1.92-12.75-8.69-22.88-18.32-30.97-17.25-14.47-35.96-26.92-55.36-38.35-6.15-3.63-12.43-7.12-17.85-11.85-1-.87-3.4-1.2-2.21-3.55,20.65,13.5,42.04,25.9,62.04,40.37,9.22,6.67,18.46,13.6,24.85,23.31,9.12,13.87,13.13,28.45,4.49,44.12-8.01,14.53-20.41,22.74-36.82,25.24-23.22,3.54-45.63,.42-66.82-9.19-16.82-7.62-30-20.26-42.38-33.86-18.81-20.67-20.84-45.23-17.92-71.23,1.98-17.63,11.68-31.29,22.62-44.27,2.12-2.51,14.64-14.41,18.14-15.64l-7.78,7.01c-2.74,2.63-7.26,7.57-9.71,10.2-16.47,17.63-23.83,38.66-22.87,62.5,.82,20.32,7.27,38.52,21.63,53.67,16.72,17.65,35.57,31.72,59.68,37.29,16.96,3.92,34.06,4.52,51.11,.27,8.77-2.18,16.35-6.48,23.15-13.67-8.51-1.09-16.8-.32-24.62-5.18,2.98-.52,4.92,.59,6.89,1.13,3.81,1.05,7.65,1.62,11.6,1.6,8.9-.06,16.43-8.14,16.02-17.09-.11-2.35-.67-3.13-3.3-3-7.36,.36-14.64-.27-20.37-3.77,7-.3,14.48,4.21,22.52,1.29Z" style="fill: #231f20; stroke: #231f20; stroke-miterlimit: 10;"/>
    <path d="M247.27,162.18c-2.96-.24-5.85-.15-8.59-1.39-5.54-2.51-7.54-9-3.44-13.34,11.45-12.14,25.79-17.94,42.45-17.31,4.44,.17,8.66,2.11,9.91,7.36,1.24,5.16-1.51,8.27-5.3,11.07-10.47,7.74-22.11,12.34-35.03,13.61Z" style="fill: #231f20;"/>
    <path d="M215.49,148.6c.19-.59,.29-1.88,1.27-2.87,5.44-5.49,7.72-6.41,9.97-7.68,36.02-20.38,54.98-16.38,54.98-16.38,31.04,2.65,50.86,21.52,55.95,53.3,1.07,6.66,1.41,13.33,.28,20.06-1.5-3.47-1.18-7.18-1.48-10.8-.84-10.05-2.81-19.68-7.03-29.05-10.29-22.86-34.82-34.06-55.93-31.59-19.89,2.33-38,11.31-55.2,22.86-.98,.66-1.87,1.43-2.81,2.14Z" style="fill: #231f20;"/>
    <path d="M186.82,154.26c-4.37,.02-7.71-3.62-7.69-8.39,.02-4.28,3.22-7.53,7.3-7.43,3.77,.1,7.23,4.11,7.23,8.4,0,3.97-3.15,7.39-6.85,7.41Z" style="fill: #231f20;"/>
    <path d="M286,115.38c-4.8-.09-7.63-2.37-7.66-6.18-.03-4.62,3.87-8.71,8.21-8.61,4.16,.1,7.18,3.64,7.01,8.23-.14,3.85-3.36,6.64-7.55,6.56Z" style="fill: #231f20;"/>
    <path d="M275.47,230.7c5.17-6.64,14.07-9.55,20.62-6.35-8.23,.5-14.97,1.82-20.62,6.35Z" style="fill: #231f20;"/>
    <path d="M117.91,107.55c-7.25-4.68-15.21-4.4-23.28-3.28,5.41-7.34,19.02-9.72,26.52-4.71,1.77,1.18,2.38,2.29,.67,3.96-1.33,1.31-2.61,2.68-3.91,4.02Z" style="fill: #cad2ce;"/>
    <path d="M294.14,53.36c.56-.68,3.02,1.16,1.91-2.02-2.02-5.76-2-12.19-5.63-17.46,5.98,1.81,12.19,14.15,9.6,19.41-1.72,3.48-3.9,.49-5.87,.07Z" style="fill: #cad2ce;"/>
  </g>
</svg>